<svg xmlns="http://www.w3.org/2000/svg" xmlns:xlink="http://www.w3.org/1999/xlink" width="500" zoomAndPan="magnify" viewBox="0 0 375 374.999991" height="500" preserveAspectRatio="xMidYMid meet" version="1.0"><defs><g/><clipPath id="91e89dcb8a"><path d="M 16.367188 12.167969 L 358.632812 12.167969 L 358.632812 354.433594 L 16.367188 354.433594 Z M 16.367188 12.167969 " clip-rule="nonzero"/></clipPath><clipPath id="6b77f410b6"><path d="M 187.5 12.167969 C 92.984375 12.167969 16.367188 88.789062 16.367188 183.300781 C 16.367188 277.816406 92.984375 354.433594 187.5 354.433594 C 282.015625 354.433594 358.632812 277.816406 358.632812 183.300781 C 358.632812 88.789062 282.015625 12.167969 187.5 12.167969 Z M 187.5 12.167969 " clip-rule="nonzero"/></clipPath><clipPath id="aa15cf3a75"><path d="M 16.367188 12.167969 L 358.367188 12.167969 L 358.367188 354.167969 L 16.367188 354.167969 Z M 16.367188 12.167969 " clip-rule="nonzero"/></clipPath><clipPath id="2c9f9bedf0"><path d="M 187.496094 12.167969 C 92.984375 12.167969 16.367188 88.785156 16.367188 183.296875 C 16.367188 277.808594 92.984375 354.425781 187.496094 354.425781 C 282.007812 354.425781 358.625 277.808594 358.625 183.296875 C 358.625 88.785156 282.007812 12.167969 187.496094 12.167969 Z M 187.496094 12.167969 " clip-rule="nonzero"/></clipPath><clipPath id="2c311cd5db"><path d="M 152 82.203125 L 158 82.203125 L 158 87 L 152 87 Z M 152 82.203125 " clip-rule="nonzero"/></clipPath><clipPath id="0474890f9c"><path d="M 80 83 L 291.710938 83 L 291.710938 287.703125 L 80 287.703125 Z M 80 83 " clip-rule="nonzero"/></clipPath><clipPath id="bfa6282e29"><path d="M 41.355469 177.820312 L 57.980469 177.820312 L 57.980469 194.445312 L 41.355469 194.445312 Z M 41.355469 177.820312 " clip-rule="nonzero"/></clipPath><clipPath id="f09026d6bf"><path d="M 49.667969 177.820312 C 45.078125 177.820312 41.355469 181.542969 41.355469 186.132812 C 41.355469 190.722656 45.078125 194.445312 49.667969 194.445312 C 54.257812 194.445312 57.980469 190.722656 57.980469 186.132812 C 57.980469 181.542969 54.257812 177.820312 49.667969 177.820312 Z M 49.667969 177.820312 " clip-rule="nonzero"/></clipPath><clipPath id="000438875d"><path d="M 287.675781 179.09375 L 300.8125 179.09375 L 300.8125 192.234375 L 287.675781 192.234375 Z M 287.675781 179.09375 " clip-rule="nonzero"/></clipPath><clipPath id="f479594b4d"><path d="M 294.246094 179.09375 C 290.617188 179.09375 287.675781 182.035156 287.675781 185.664062 C 287.675781 189.292969 290.617188 192.234375 294.246094 192.234375 C 297.871094 192.234375 300.8125 189.292969 300.8125 185.664062 C 300.8125 182.035156 297.871094 179.09375 294.246094 179.09375 Z M 294.246094 179.09375 " clip-rule="nonzero"/></clipPath></defs><g clip-path="url(#91e89dcb8a)"><g clip-path="url(#6b77f410b6)"><path fill="#ffffff" d="M 16.367188 12.167969 L 358.632812 12.167969 L 358.632812 354.433594 L 16.367188 354.433594 Z M 16.367188 12.167969 " fill-opacity="1" fill-rule="nonzero"/></g></g><g clip-path="url(#aa15cf3a75)"><g clip-path="url(#2c9f9bedf0)"><path stroke-linecap="butt" transform="matrix(0.75, 0, 0, 0.75, 16.367373, 12.168687)" fill="none" stroke-linejoin="miter" d="M 228.171643 -0.000957721 C 102.15601 -0.000957721 -0.00024694 102.155299 -0.00024694 228.170932 C -0.00024694 354.186566 102.15601 456.342822 228.171643 456.342822 C 354.187276 456.342822 456.343533 354.186566 456.343533 228.170932 C 456.343533 102.155299 354.187276 -0.000957721 228.171643 -0.000957721 Z M 228.171643 -0.000957721 " stroke="#000000" stroke-width="4" stroke-opacity="1" stroke-miterlimit="4"/></g></g><path fill="#8bcb8f" d="M 191.347656 183.636719 C 198.90625 184.808594 207.617188 198.097656 202.304688 206.882812 C 197.011719 215.671875 176.589844 214.414062 173.476562 203.46875 C 170.960938 194.632812 183.8125 182.480469 191.347656 183.636719 Z M 191.347656 183.636719 " fill-opacity="1" fill-rule="nonzero"/><path fill="#319f9f" d="M 257.203125 240.054688 C 257.183594 240.074219 257.183594 240.089844 257.183594 240.089844 C 245.960938 248.976562 232.492188 255.152344 217.75 257.613281 C 217.464844 257.664062 217.164062 257.714844 216.878906 257.746094 C 215.304688 258.015625 213.714844 258.214844 212.121094 258.367188 L 210.949219 258.515625 L 223.160156 247.539062 C 224.03125 246.75 224.484375 245.664062 224.484375 244.558594 C 224.484375 243.605469 224.148438 242.648438 223.445312 241.878906 C 222.425781 240.757812 220.867188 240.308594 219.390625 240.726562 L 198.386719 248.191406 L 187.511719 234.765625 C 187.511719 234.765625 187.511719 231.453125 189.339844 228.375 C 190.109375 227.085938 191.199219 225.847656 192.722656 224.890625 C 193.277344 224.558594 193.863281 224.257812 194.53125 224.003906 C 197.363281 222.933594 200.34375 223.152344 201.953125 223.300781 C 205.65625 223.652344 209.308594 221.761719 211.167969 218.53125 C 213.144531 215.117188 216.394531 211.152344 221.636719 210.632812 C 233.414062 209.460938 238.089844 218.699219 242.746094 224.222656 C 244.570312 226.398438 247.285156 227.671875 250.132812 227.6875 C 252.3125 227.703125 254.789062 228.121094 256.332031 229.695312 C 259.414062 232.859375 257.351562 239.570312 257.203125 240.054688 Z M 257.203125 240.054688 " fill-opacity="1" fill-rule="nonzero"/><path fill="#a7d276" d="M 173.140625 111.367188 C 174.832031 113.996094 176.105469 117.492188 175.101562 121.574219 C 173.910156 126.328125 169.371094 128.789062 165.300781 130.042969 C 161.53125 131.234375 158.714844 134.28125 157.558594 138.0625 C 156.855469 140.339844 155.617188 142.664062 153.40625 144.105469 C 150.121094 146.230469 146.152344 145.84375 143.453125 145.175781 C 141.195312 144.621094 138.832031 144.773438 136.652344 145.527344 C 133.890625 146.496094 130.171875 147.5 127.792969 147.015625 C 123.738281 146.210938 122.546875 141.542969 122.464844 141.191406 C 122.464844 141.175781 122.464844 141.175781 122.464844 141.175781 C 131.191406 118.496094 149.183594 100.402344 171.816406 91.566406 C 172.636719 94.578125 172.652344 97.507812 171.75 100.335938 C 170.558594 104.085938 171.011719 108.070312 173.140625 111.367188 Z M 173.140625 111.367188 " fill-opacity="1" fill-rule="nonzero"/><path fill="#349370" d="M 290.035156 172.222656 C 290.035156 186.683594 286.484375 200.324219 280.203125 212.304688 C 275.695312 211.117188 272.042969 208.925781 269.515625 205.378906 C 266.984375 201.847656 262.144531 200.941406 258.242188 202.867188 C 253.25 205.292969 246.398438 207.167969 238.941406 204.839844 C 230.515625 202.214844 225.941406 192.773438 223.582031 185.125 C 221.820312 179.433594 216.730469 175.550781 210.796875 174.765625 C 205.957031 174.113281 201.636719 172.355469 197.816406 169.460938 C 196.542969 168.488281 195.304688 167.382812 194.128906 166.164062 C 193.5625 165.558594 192.992188 164.925781 192.4375 164.253906 L 196.777344 160.289062 C 198.316406 158.882812 198.4375 156.488281 197.0625 154.933594 L 195.269531 152.90625 C 194.382812 151.902344 193.042969 151.433594 191.71875 151.667969 C 191.71875 151.667969 191.417969 150.28125 191.5 148.472656 C 191.550781 147.21875 191.800781 145.742188 192.472656 144.4375 C 192.65625 144.054688 192.890625 143.667969 193.160156 143.316406 C 193.894531 142.363281 194.785156 141.660156 195.703125 141.140625 C 198.417969 139.585938 200.195312 136.804688 200.949219 133.777344 C 201.617188 131.03125 202.992188 127.867188 205.773438 125.507812 C 209.457031 122.363281 219.15625 121.292969 226.226562 120.941406 C 230.414062 120.722656 234.101562 117.945312 235.238281 113.910156 C 236.980469 107.734375 241.21875 102.445312 248.273438 98.160156 C 273.300781 113.324219 290.035156 140.824219 290.035156 172.222656 Z M 290.035156 172.222656 " fill-opacity="1" fill-rule="nonzero"/><path fill="#52a7d7" d="M 180.929688 256.074219 C 178.25 255.285156 174.898438 254.015625 174.898438 254.015625 C 173.710938 253.597656 172.535156 253.160156 171.363281 252.691406 C 154.796875 246.113281 140.722656 234.550781 131.023438 219.871094 L 135.378906 216.039062 L 138.363281 213.394531 Z M 180.929688 256.074219 " fill-opacity="1" fill-rule="nonzero"/><path fill="#52a7d7" d="M 269.515625 205.378906 C 266.984375 201.847656 262.144531 200.941406 258.242188 202.867188 C 253.25 205.292969 246.398438 207.167969 238.941406 204.839844 C 230.515625 202.214844 225.941406 192.773438 223.582031 185.125 C 221.820312 179.433594 216.730469 175.550781 210.796875 174.765625 C 205.957031 174.113281 201.636719 172.355469 197.816406 169.460938 C 196.542969 168.488281 195.304688 167.382812 194.128906 166.164062 C 193.5625 165.558594 192.992188 164.925781 192.4375 164.253906 L 156.804688 196.859375 L 187.511719 234.765625 C 187.511719 234.765625 187.511719 231.453125 189.339844 228.375 C 190.109375 227.085938 191.199219 225.847656 192.722656 224.890625 C 193.277344 224.558594 193.863281 224.257812 194.53125 224.003906 C 197.363281 222.933594 200.34375 223.152344 201.953125 223.300781 C 205.65625 223.652344 209.308594 221.761719 211.167969 218.53125 C 213.144531 215.117188 216.394531 211.152344 221.636719 210.632812 C 233.414062 209.460938 238.089844 218.699219 242.746094 224.222656 C 244.570312 226.398438 247.285156 227.671875 250.132812 227.6875 C 252.3125 227.703125 254.789062 228.121094 256.332031 229.695312 C 259.414062 232.859375 257.351562 239.570312 257.203125 240.054688 C 266.683594 232.558594 274.558594 223.101562 280.203125 212.304688 C 275.695312 211.117188 272.042969 208.925781 269.515625 205.378906 Z M 202.304688 206.882812 C 198.9375 212.472656 189.421875 213.996094 182.167969 211.519531 C 178.015625 210.148438 174.613281 207.453125 173.476562 203.46875 C 173.441406 203.367188 173.425781 203.25 173.40625 203.152344 C 171.261719 194.347656 183.894531 182.496094 191.347656 183.636719 C 198.90625 184.808594 207.617188 198.097656 202.304688 206.882812 Z M 202.304688 206.882812 " fill-opacity="1" fill-rule="nonzero"/><path fill="#52a7d7" d="M 248.273438 98.160156 C 241.21875 102.445312 236.980469 107.734375 235.238281 113.910156 C 234.101562 117.945312 230.414062 120.722656 226.226562 120.941406 C 219.15625 121.292969 209.457031 122.363281 205.773438 125.507812 C 202.992188 127.867188 201.617188 131.03125 200.949219 133.777344 C 200.195312 136.804688 198.417969 139.585938 195.703125 141.140625 C 194.785156 141.660156 193.894531 142.363281 193.160156 143.316406 C 192.890625 143.667969 192.65625 144.054688 192.472656 144.4375 C 191.800781 145.742188 191.550781 147.21875 191.5 148.472656 C 191.417969 150.28125 191.71875 151.667969 191.71875 151.667969 L 177.125 154.28125 L 171.882812 148.421875 C 167.058594 149.324219 163.894531 152.035156 162.550781 156.773438 L 149.035156 159.835938 L 143.539062 153.675781 C 139.285156 154.832031 136.402344 157.511719 134.761719 161.558594 L 125.195312 161.710938 L 118.578125 154.347656 C 119.011719 152.289062 119.515625 150.261719 120.101562 148.269531 C 120.789062 145.859375 121.578125 143.5 122.464844 141.191406 C 122.546875 141.542969 123.6875 146.027344 127.558594 146.949219 C 127.640625 146.984375 127.707031 147 127.792969 147.015625 C 130.171875 147.5 133.890625 146.496094 136.652344 145.527344 C 138.832031 144.773438 141.195312 144.621094 143.453125 145.175781 C 146.152344 145.84375 150.121094 146.230469 153.40625 144.105469 C 155.617188 142.664062 156.855469 140.339844 157.558594 138.0625 C 158.714844 134.277344 161.53125 131.234375 165.300781 130.042969 C 169.371094 128.789062 173.910156 126.328125 175.101562 121.574219 C 176.105469 117.492188 174.832031 113.996094 173.140625 111.367188 C 171.011719 108.070312 170.558594 104.085938 171.75 100.335938 C 172.652344 97.507812 172.636719 94.578125 171.816406 91.566406 C 181.601562 87.734375 192.253906 85.640625 203.378906 85.640625 C 219.8125 85.640625 235.171875 90.210938 248.273438 98.160156 Z M 248.273438 98.160156 " fill-opacity="1" fill-rule="nonzero"/><path fill="#c2e6f9" d="M 180.929688 256.074219 L 138.363281 213.394531 L 131.023438 219.871094 L 97.570312 249.34375 C 96.078125 250.648438 93.835938 250.53125 92.496094 249.078125 L 90.449219 246.835938 C 89.597656 245.898438 89.296875 244.589844 89.648438 243.386719 L 93.835938 229.058594 L 88.558594 223.21875 C 90.402344 219.136719 93.464844 216.289062 97.855469 214.832031 L 102.363281 201.730469 L 96.816406 195.636719 C 98.292969 191.570312 101.121094 188.824219 105.613281 187.738281 L 106.769531 178.261719 L 86.984375 156.253906 C 85.441406 154.546875 84.335938 152.539062 83.699219 150.347656 C 82.425781 145.859375 81.019531 138.398438 84.46875 134.949219 C 88.054688 131.367188 95.914062 134.027344 100.269531 135.917969 C 102.195312 136.757812 103.886719 138.027344 105.292969 139.585938 L 118.578125 154.347656 L 125.195312 161.710938 L 134.761719 161.558594 C 136.402344 157.511719 139.285156 154.832031 143.539062 153.675781 L 149.035156 159.835938 L 162.550781 156.773438 C 163.894531 152.035156 167.058594 149.324219 171.882812 148.421875 L 177.125 154.28125 L 191.71875 151.667969 C 193.042969 151.433594 194.382812 151.902344 195.269531 152.90625 L 197.0625 154.933594 C 198.4375 156.488281 198.316406 158.882812 196.777344 160.289062 L 192.4375 164.253906 L 156.804688 196.859375 L 187.511719 234.765625 L 198.386719 248.191406 L 219.394531 240.726562 C 220.867188 240.308594 222.425781 240.757812 223.445312 241.878906 C 224.148438 242.648438 224.484375 243.605469 224.484375 244.558594 C 224.484375 245.664062 224.03125 246.75 223.160156 247.539062 L 210.949219 258.515625 L 207.480469 261.644531 L 211.082031 269.765625 L 208.117188 272.425781 L 205.136719 275.085938 L 197.445312 270.652344 L 181.75 284.726562 C 180.09375 286.199219 177.5625 286.046875 176.089844 284.410156 C 175.417969 283.65625 175.066406 282.703125 175.066406 281.730469 C 175.066406 281.226562 175.167969 280.726562 175.351562 280.257812 L 185.035156 260.191406 Z M 180.929688 256.074219 " fill-opacity="1" fill-rule="nonzero"/><path fill="#c3ddda" d="M 138.363281 213.394531 L 133.804688 217.425781 C 134.527344 218.121094 135.464844 219.34375 136.980469 221.179688 C 139.902344 224.726562 143.125 228.03125 146.589844 231.054688 L 171.363281 252.691406 C 172.535156 253.160156 173.710938 253.597656 174.898438 254.015625 C 174.898438 254.015625 178.25 255.285156 180.929688 256.074219 Z M 138.363281 213.394531 " fill-opacity="1" fill-rule="nonzero"/><path fill="#c3ddda" d="M 227.902344 236.792969 C 224.585938 233.746094 220.214844 233.78125 217.851562 233.796875 C 210.398438 233.878906 207.917969 237.964844 203.308594 236.792969 L 166.539062 197.914062 C 165.917969 194.832031 172.46875 192.324219 177.644531 187.652344 C 185.503906 180.605469 190.078125 176.859375 196.894531 170.347656 C 197.210938 170.046875 197.515625 169.761719 197.816406 169.460938 C 210.632812 157.125 210.933594 154.398438 210.582031 152.605469 C 209.675781 147.988281 203.292969 144.269531 197.75 143.851562 C 195.824219 143.703125 194.078125 143.96875 192.472656 144.4375 C 187.296875 145.910156 183.695312 149.425781 180.226562 147.484375 C 180.191406 147.464844 180.160156 147.445312 180.125 147.425781 C 173.378906 143.535156 164.863281 144.753906 159.90625 150.753906 L 158.195312 152.824219 L 158.164062 152.84375 C 154.464844 155.3125 149.550781 154.878906 146.339844 151.808594 L 144.601562 150.144531 C 142.074219 147.726562 138.191406 147.417969 135.316406 149.410156 C 132.851562 151.132812 132.753906 152.238281 131.898438 152.40625 C 130.539062 152.65625 129.082031 150.261719 127.558594 146.949219 C 123.6875 146.027344 122.550781 141.542969 122.464844 141.191406 C 121.578125 143.5 120.789062 145.859375 120.105469 148.269531 C 119.519531 150.261719 119.015625 152.289062 118.578125 154.347656 L 125.195312 161.710938 L 134.761719 161.558594 C 136.402344 157.511719 139.285156 154.832031 143.539062 153.675781 L 149.035156 159.835938 L 162.554688 156.773438 C 163.894531 152.035156 167.058594 149.324219 171.886719 148.421875 L 177.128906 154.28125 L 191.71875 151.667969 C 193.042969 151.433594 194.382812 151.902344 195.269531 152.90625 L 197.0625 154.929688 C 198.445312 156.492188 198.320312 158.878906 196.777344 160.289062 L 192.441406 164.253906 L 156.808594 196.859375 L 187.515625 234.765625 L 198.386719 248.191406 L 219.394531 240.726562 C 220.867188 240.308594 222.425781 240.757812 223.449219 241.878906 C 224.152344 242.648438 224.488281 243.605469 224.488281 244.558594 C 224.488281 245.664062 224.035156 246.75 223.164062 247.539062 L 210.949219 258.515625 L 212.125 258.367188 C 213.714844 258.214844 215.308594 258.015625 216.882812 257.746094 C 221.136719 252.324219 230 252.675781 231.554688 246.617188 C 232.492188 242.917969 230.199219 238.902344 227.902344 236.792969 Z M 227.902344 236.792969 " fill-opacity="1" fill-rule="nonzero"/><path fill="#3a322b" d="M 225.527344 268.03125 C 224.617188 268.238281 223.699219 268.433594 222.773438 268.617188 C 221.867188 268.792969 221.277344 269.675781 221.457031 270.582031 C 221.613281 271.378906 222.3125 271.929688 223.097656 271.929688 C 223.207031 271.929688 223.3125 271.921875 223.425781 271.898438 C 224.378906 271.710938 225.328125 271.507812 226.273438 271.292969 C 227.175781 271.085938 227.738281 270.191406 227.535156 269.289062 C 227.328125 268.386719 226.433594 267.824219 225.527344 268.03125 Z M 225.527344 268.03125 " fill-opacity="1" fill-rule="nonzero"/><path fill="#3a322b" d="M 288.078125 225.695312 C 287.304688 225.191406 286.265625 225.40625 285.757812 226.179688 C 273.160156 245.429688 254.09375 259.679688 232.074219 266.304688 C 231.1875 266.570312 230.6875 267.503906 230.953125 268.390625 C 231.171875 269.113281 231.835938 269.582031 232.558594 269.582031 C 232.71875 269.582031 232.882812 269.558594 233.042969 269.507812 C 255.816406 262.65625 275.535156 247.921875 288.5625 228.015625 C 289.070312 227.238281 288.855469 226.199219 288.078125 225.695312 Z M 288.078125 225.695312 " fill-opacity="1" fill-rule="nonzero"/><g clip-path="url(#2c311cd5db)"><path fill="#3a322b" d="M 154.125 86.988281 C 154.40625 86.988281 154.691406 86.917969 154.953125 86.769531 C 155.609375 86.398438 156.265625 86.03125 156.929688 85.675781 C 157.746094 85.238281 158.050781 84.222656 157.609375 83.410156 C 157.171875 82.597656 156.15625 82.285156 155.34375 82.730469 C 154.65625 83.097656 153.972656 83.476562 153.296875 83.863281 C 152.492188 84.316406 152.214844 85.339844 152.667969 86.144531 C 152.976562 86.683594 153.542969 86.988281 154.125 86.988281 Z M 154.125 86.988281 " fill-opacity="1" fill-rule="nonzero"/></g><path fill="#3a322b" d="M 110.601562 134.722656 C 110.816406 134.816406 111.039062 134.859375 111.257812 134.859375 C 111.910156 134.859375 112.527344 134.476562 112.796875 133.839844 C 120.507812 115.769531 133.390625 100.519531 150.054688 89.742188 C 150.832031 89.238281 151.054688 88.203125 150.550781 87.425781 C 150.046875 86.648438 149.011719 86.425781 148.234375 86.929688 C 131.007812 98.074219 117.6875 113.839844 109.714844 132.527344 C 109.355469 133.378906 109.75 134.359375 110.601562 134.722656 Z M 110.601562 134.722656 " fill-opacity="1" fill-rule="nonzero"/><g clip-path="url(#0474890f9c)"><path fill="#3a322b" d="M 209.503906 262.078125 L 211.691406 260.109375 L 212.292969 260.03125 C 257.570312 255.5 291.714844 217.75 291.714844 172.226562 C 291.714844 140.371094 274.730469 112.410156 249.339844 96.890625 C 249.238281 96.808594 249.132812 96.75 249.015625 96.695312 C 235.6875 88.625 220.070312 83.976562 203.382812 83.976562 C 192.285156 83.976562 181.570312 86.09375 171.648438 89.941406 C 171.558594 89.949219 171.464844 89.933594 171.375 89.960938 C 171.140625 90.023438 170.933594 90.140625 170.757812 90.285156 C 144.902344 100.632812 124.640625 122.898438 117.671875 150.84375 L 106.542969 138.46875 C 104.9375 136.683594 103.046875 135.308594 100.929688 134.386719 C 95.132812 131.859375 87.363281 129.703125 83.292969 133.773438 C 79.402344 137.660156 80.492188 145.175781 82.09375 150.800781 C 82.792969 153.257812 84.015625 155.46875 85.730469 157.375 L 105.011719 178.8125 L 104.078125 186.429688 C 99.804688 187.785156 96.832031 190.683594 95.238281 195.0625 C 95.027344 195.644531 95.15625 196.300781 95.574219 196.761719 L 100.457031 202.128906 L 96.542969 213.535156 C 92.179688 215.191406 88.988281 218.214844 87.035156 222.535156 C 86.761719 223.140625 86.871094 223.851562 87.320312 224.34375 L 91.964844 229.488281 L 88.042969 242.914062 C 87.527344 244.675781 87.976562 246.609375 89.214844 247.964844 L 91.261719 250.203125 C 93.199219 252.320312 96.523438 252.496094 98.671875 250.601562 L 130.714844 222.375 C 141.351562 237.71875 156.765625 249.484375 174.3125 255.582031 C 174.449219 255.632812 177.429688 256.753906 180.046875 257.550781 L 183.011719 260.523438 L 173.804688 279.636719 C 173 281.648438 173.394531 283.902344 174.839844 285.519531 C 175.851562 286.652344 177.242188 287.320312 178.757812 287.40625 C 178.867188 287.414062 178.976562 287.414062 179.082031 287.414062 C 180.480469 287.414062 181.8125 286.90625 182.863281 285.964844 L 197.667969 272.699219 L 204.304688 276.535156 C 204.929688 276.898438 205.722656 276.816406 206.261719 276.332031 L 212.199219 271.003906 C 212.738281 270.515625 212.90625 269.742188 212.609375 269.078125 Z M 224.691406 240.761719 C 223.234375 239.152344 221.035156 238.519531 218.839844 239.144531 L 198.945312 246.21875 L 189.222656 234.214844 C 189.363281 232.519531 190.195312 227.417969 195.109375 225.574219 C 197.445312 224.699219 199.90625 224.792969 201.792969 224.972656 C 206.160156 225.378906 210.40625 223.1875 212.617188 219.375 C 215.167969 214.96875 218.175781 212.652344 221.808594 212.292969 C 230.78125 211.402344 235.242188 217.25 239.171875 222.40625 C 239.953125 223.429688 240.703125 224.414062 241.457031 225.308594 C 243.609375 227.863281 246.769531 229.34375 250.128906 229.367188 C 251.746094 229.375 253.929688 229.644531 255.125 230.871094 C 257.058594 232.847656 256.246094 237.355469 255.679688 239.269531 C 244.46875 247.988281 230.953125 253.976562 216.042969 256.191406 L 224.28125 248.785156 C 225.410156 247.769531 226.074219 246.375 226.152344 244.859375 C 226.226562 243.34375 225.710938 241.886719 224.691406 240.761719 Z M 259.664062 235.957031 C 259.828125 233.472656 259.492188 230.539062 257.527344 228.527344 C 255.914062 226.882812 253.433594 226.039062 250.152344 226.015625 C 247.777344 226 245.542969 224.953125 244.023438 223.148438 C 243.304688 222.296875 242.585938 221.351562 241.839844 220.375 C 237.601562 214.8125 232.320312 207.894531 221.480469 208.960938 C 216.765625 209.425781 212.804688 212.367188 209.71875 217.695312 C 208.164062 220.382812 205.183594 221.925781 202.109375 221.640625 C 200.789062 221.515625 197.292969 221.183594 193.9375 222.441406 C 189.296875 224.179688 187.320312 227.914062 186.476562 230.828125 L 159.09375 197.023438 L 192.320312 166.628906 C 197.328125 172.148438 203.453125 175.457031 210.582031 176.417969 C 216.082031 177.160156 220.449219 180.6875 221.976562 185.628906 C 224.429688 193.542969 229.277344 203.578125 238.441406 206.4375 C 244.941406 208.46875 252.042969 207.75 258.972656 204.363281 C 262.300781 202.738281 266.160156 203.578125 268.148438 206.359375 C 270.429688 209.550781 273.683594 211.890625 277.832031 213.332031 C 273.117188 221.886719 266.957031 229.53125 259.664062 235.957031 Z M 288.359375 172.222656 C 288.359375 185.902344 285.15625 198.851562 279.421875 210.328125 C 275.667969 209.125 272.859375 207.1875 270.878906 204.410156 C 267.933594 200.292969 262.308594 199.007812 257.503906 201.355469 C 251.269531 204.402344 245.191406 205.039062 239.441406 203.242188 C 231.667969 200.816406 227.394531 191.785156 225.179688 184.636719 C 223.257812 178.4375 217.839844 174.015625 211.03125 173.101562 C 204.707031 172.25 199.257812 169.296875 194.789062 164.367188 L 197.90625 161.515625 C 200.105469 159.503906 200.285156 156.050781 198.3125 153.820312 L 196.515625 151.789062 C 195.652344 150.8125 194.464844 150.195312 193.195312 150.003906 C 193.089844 148.511719 193.167969 146.054688 194.496094 144.328125 C 195.015625 143.648438 195.699219 143.0625 196.53125 142.585938 C 199.507812 140.878906 201.652344 137.890625 202.570312 134.171875 C 203.339844 131.027344 204.785156 128.539062 206.855469 126.777344 C 209.421875 124.59375 216.332031 123.113281 226.316406 122.605469 C 231.292969 122.355469 235.527344 119.042969 236.851562 114.363281 C 238.4375 108.785156 242.289062 104.019531 248.261719 100.171875 C 272.316406 115.183594 288.359375 141.859375 288.359375 172.222656 Z M 170.601562 93.964844 C 170.894531 96.007812 170.75 97.945312 170.152344 99.835938 C 168.800781 104.09375 169.378906 108.628906 171.734375 112.273438 C 173.621094 115.195312 174.207031 118.191406 173.46875 121.171875 C 172.453125 125.273438 168.199219 127.394531 164.8125 128.453125 C 160.605469 129.765625 157.292969 133.171875 155.953125 137.570312 C 155.226562 139.949219 154.0625 141.671875 152.484375 142.699219 C 149.726562 144.488281 146.269531 144.148438 143.855469 143.550781 C 141.335938 142.925781 138.648438 143.0625 136.097656 143.949219 C 132.535156 145.1875 129.703125 145.695312 128.121094 145.378906 C 125.683594 144.890625 124.59375 142.332031 124.242188 141.277344 C 132.695312 119.773438 149.660156 102.777344 170.601562 93.964844 Z M 122.710938 145.527344 C 123.730469 146.90625 125.246094 148.21875 127.464844 148.660156 C 127.976562 148.761719 128.542969 148.816406 129.164062 148.816406 C 131.246094 148.816406 133.9375 148.246094 137.199219 147.109375 C 139.132812 146.441406 141.15625 146.332031 143.046875 146.796875 C 146.109375 147.554688 150.542969 147.945312 154.308594 145.503906 C 156.566406 144.039062 158.195312 141.699219 159.160156 138.546875 C 160.175781 135.207031 162.660156 132.628906 165.808594 131.648438 C 171.84375 129.765625 175.617188 126.417969 176.71875 121.972656 C 177.675781 118.117188 176.925781 114.132812 174.546875 110.457031 C 172.734375 107.652344 172.300781 104.148438 173.347656 100.847656 C 174.167969 98.253906 174.273438 95.523438 173.75 92.710938 C 183.042969 89.230469 193.042969 87.320312 203.378906 87.320312 C 218.519531 87.320312 232.734375 91.3125 245.058594 98.273438 C 239.160156 102.421875 235.3125 107.515625 233.628906 113.453125 C 232.691406 116.75 229.683594 119.085938 226.140625 119.265625 C 215.117188 119.824219 207.898438 121.496094 204.683594 124.230469 C 202.0625 126.457031 200.257812 129.535156 199.3125 133.375 C 198.617188 136.199219 197.039062 138.4375 194.863281 139.683594 C 193.644531 140.382812 192.625 141.261719 191.832031 142.292969 C 189.828125 144.902344 189.703125 148.285156 189.851562 150.300781 L 177.753906 152.46875 L 173.128906 147.300781 C 172.738281 146.867188 172.148438 146.667969 171.570312 146.773438 C 166.351562 147.753906 162.878906 150.636719 161.238281 155.347656 L 149.617188 157.988281 L 144.796875 152.5625 C 144.371094 152.089844 143.714844 151.890625 143.101562 152.058594 C 138.757812 153.242188 135.582031 155.878906 133.652344 159.910156 L 125.929688 160.027344 L 120.398438 153.878906 C 121.03125 151.03125 121.804688 148.25 122.710938 145.527344 Z M 133.242188 220.144531 L 138.296875 215.695312 L 174.644531 252.136719 C 157.9375 246.132812 143.320312 234.832031 133.242188 220.144531 Z M 204.929688 273.027344 L 198.292969 269.195312 C 197.667969 268.832031 196.875 268.914062 196.335938 269.398438 L 180.625 283.476562 C 180.164062 283.890625 179.5625 284.105469 178.945312 284.066406 C 178.324219 284.03125 177.753906 283.757812 177.339844 283.292969 C 176.746094 282.632812 176.585938 281.707031 176.871094 280.984375 L 186.546875 260.910156 C 186.855469 260.269531 186.726562 259.503906 186.226562 259 L 139.558594 212.214844 C 139.230469 211.890625 138.800781 211.722656 138.371094 211.722656 C 137.976562 211.722656 137.578125 211.863281 137.261719 212.140625 L 96.457031 248.089844 C 95.667969 248.789062 94.445312 248.722656 93.734375 247.945312 L 91.6875 245.707031 C 91.234375 245.210938 91.070312 244.5 91.257812 243.851562 L 95.441406 229.527344 C 95.605469 228.96875 95.46875 228.367188 95.078125 227.9375 L 90.566406 222.9375 C 92.273438 219.742188 94.84375 217.605469 98.394531 216.425781 C 98.890625 216.261719 99.28125 215.875 99.449219 215.378906 L 103.949219 202.273438 C 104.148438 201.695312 104.015625 201.054688 103.601562 200.605469 L 98.757812 195.28125 C 100.167969 192.140625 102.542969 190.199219 106 189.363281 C 106.675781 189.199219 107.183594 188.632812 107.265625 187.941406 L 108.425781 178.460938 C 108.484375 177.980469 108.332031 177.496094 108.007812 177.136719 L 88.222656 155.136719 C 86.851562 153.613281 85.875 151.84375 85.316406 149.882812 C 83.429688 143.25 83.554688 138.242188 85.660156 136.136719 C 87.734375 134.0625 92.941406 134.558594 99.59375 137.453125 C 101.269531 138.183594 102.769531 139.277344 104.050781 140.703125 L 123.949219 162.828125 C 124.273438 163.1875 124.714844 163.382812 125.21875 163.382812 L 134.777344 163.242188 C 135.453125 163.230469 136.054688 162.820312 136.308594 162.195312 C 137.648438 158.882812 139.847656 156.714844 143.011719 155.59375 L 147.773438 160.949219 C 148.175781 161.40625 148.800781 161.605469 149.394531 161.472656 L 162.921875 158.398438 C 163.519531 158.261719 163.996094 157.8125 164.164062 157.21875 C 165.210938 153.5 167.546875 151.21875 171.285156 150.265625 L 175.882812 155.394531 C 176.269531 155.828125 176.855469 156.027344 177.425781 155.925781 L 192.011719 153.316406 C 192.742188 153.183594 193.511719 153.449219 194.007812 154.007812 L 195.800781 156.039062 C 196.574219 156.910156 196.5 158.261719 195.640625 159.050781 L 155.671875 195.617188 C 155.015625 196.214844 154.941406 197.21875 155.5 197.902344 L 197.089844 249.246094 C 197.535156 249.796875 198.28125 250.003906 198.953125 249.769531 L 219.855469 242.332031 C 220.714844 242.09375 221.613281 242.351562 222.210938 243.011719 C 222.628906 243.46875 222.84375 244.066406 222.808594 244.6875 C 222.777344 245.308594 222.507812 245.878906 222.042969 246.296875 L 206.359375 260.402344 C 205.820312 260.886719 205.652344 261.660156 205.949219 262.324219 L 209.058594 269.324219 Z M 204.929688 273.027344 " fill-opacity="1" fill-rule="nonzero"/></g><path fill="#3a322b" d="M 191.609375 181.988281 C 186.558594 181.199219 180.472656 185.183594 176.679688 189.46875 C 172.390625 194.316406 170.636719 199.589844 171.871094 203.929688 C 173.386719 209.265625 178.796875 213.175781 185.992188 214.136719 C 187.035156 214.273438 188.121094 214.347656 189.226562 214.347656 C 194.878906 214.347656 200.921875 212.429688 203.746094 207.742188 C 206.242188 203.605469 206.226562 198.144531 203.703125 192.757812 C 201.015625 187.019531 196.15625 182.691406 191.609375 181.988281 Z M 200.875 206.019531 C 198.667969 209.683594 192.734375 211.660156 186.433594 210.816406 C 181.847656 210.207031 176.464844 207.835938 175.09375 203.015625 C 174.191406 199.839844 175.722656 195.605469 179.1875 191.6875 C 182.609375 187.824219 187.125 185.238281 190.308594 185.238281 C 190.582031 185.238281 190.84375 185.257812 191.097656 185.296875 C 194.480469 185.820312 198.503906 189.554688 200.667969 194.179688 C 202.710938 198.535156 202.785156 202.851562 200.875 206.019531 Z M 200.875 206.019531 " fill-opacity="1" fill-rule="nonzero"/><g clip-path="url(#bfa6282e29)"><g clip-path="url(#f09026d6bf)"><path fill="#349370" d="M 41.355469 177.820312 L 57.980469 177.820312 L 57.980469 194.445312 L 41.355469 194.445312 Z M 41.355469 177.820312 " fill-opacity="1" fill-rule="nonzero"/></g></g><g clip-path="url(#000438875d)"><g clip-path="url(#f479594b4d)"><path fill="#349370" d="M 287.675781 179.09375 L 300.8125 179.09375 L 300.8125 192.234375 L 287.675781 192.234375 Z M 287.675781 179.09375 " fill-opacity="1" fill-rule="nonzero"/></g></g><g fill="#000000" fill-opacity="1"><g transform="translate(158.758028, 325.975314)"><g><path d="M 12.65625 13.0625 C 11.101562 13.070312 9.585938 12.898438 8.109375 12.546875 C 6.628906 12.191406 5.304688 11.644531 4.140625 10.90625 C 2.984375 10.164062 2.0625 9.234375 1.375 8.109375 C 0.6875 6.984375 0.34375 5.65625 0.34375 4.125 C 0.332031 2.082031 0.851562 0.1875 1.90625 -1.5625 C 2.96875 -3.3125 4.441406 -4.859375 6.328125 -6.203125 C 8.210938 -7.546875 10.394531 -8.632812 12.875 -9.46875 C 11.789062 -9.8125 10.625 -10.164062 9.375 -10.53125 C 8.125 -10.894531 6.554688 -11.078125 4.671875 -11.078125 C 4.003906 -11.066406 3.421875 -11.003906 2.921875 -10.890625 C 2.421875 -10.785156 1.953125 -10.675781 1.515625 -10.5625 L 1.03125 -13.03125 C 1.601562 -13.25 2.25 -13.4375 2.96875 -13.59375 C 3.695312 -13.757812 4.425781 -13.84375 5.15625 -13.84375 C 6.300781 -13.84375 7.3125 -13.75 8.1875 -13.5625 C 9.0625 -13.375 9.882812 -13.144531 10.65625 -12.875 C 11.4375 -12.613281 12.234375 -12.34375 13.046875 -12.0625 C 13.867188 -11.789062 14.773438 -11.5625 15.765625 -11.375 C 16.765625 -11.1875 17.941406 -11.082031 19.296875 -11.0625 L 19.59375 -11.0625 L 19.65625 -8.34375 C 18.375 -8.34375 16.984375 -8.171875 15.484375 -7.828125 C 13.992188 -7.484375 12.515625 -6.96875 11.046875 -6.28125 C 9.585938 -5.601562 8.253906 -4.773438 7.046875 -3.796875 C 5.847656 -2.828125 4.882812 -1.707031 4.15625 -0.4375 C 3.425781 0.832031 3.0625 2.238281 3.0625 3.78125 C 3.070312 4.9375 3.351562 5.925781 3.90625 6.75 C 4.457031 7.582031 5.203125 8.265625 6.140625 8.796875 C 7.085938 9.328125 8.148438 9.710938 9.328125 9.953125 C 10.515625 10.191406 11.734375 10.304688 12.984375 10.296875 C 15.171875 10.296875 17.394531 9.851562 19.65625 8.96875 L 20.59375 11.21875 C 19.289062 11.851562 17.960938 12.316406 16.609375 12.609375 C 15.265625 12.910156 13.945312 13.0625 12.65625 13.0625 Z M 10.265625 2.734375 C 9.796875 2.734375 9.398438 2.570312 9.078125 2.25 C 8.753906 1.925781 8.59375 1.546875 8.59375 1.109375 C 8.59375 0.660156 8.753906 0.273438 9.078125 -0.046875 C 9.398438 -0.378906 9.796875 -0.546875 10.265625 -0.546875 C 10.703125 -0.546875 11.082031 -0.378906 11.40625 -0.046875 C 11.726562 0.273438 11.890625 0.660156 11.890625 1.109375 C 11.890625 1.546875 11.726562 1.925781 11.40625 2.25 C 11.082031 2.570312 10.703125 2.734375 10.265625 2.734375 Z M 14.78125 2.71875 C 14.3125 2.71875 13.914062 2.554688 13.59375 2.234375 C 13.28125 1.910156 13.125 1.53125 13.125 1.09375 C 13.125 0.644531 13.28125 0.257812 13.59375 -0.0625 C 13.914062 -0.394531 14.3125 -0.5625 14.78125 -0.5625 C 15.226562 -0.5625 15.609375 -0.394531 15.921875 -0.0625 C 16.242188 0.257812 16.40625 0.644531 16.40625 1.09375 C 16.40625 1.53125 16.242188 1.910156 15.921875 2.234375 C 15.609375 2.554688 15.226562 2.71875 14.78125 2.71875 Z M 12.53125 6.375 C 12.070312 6.382812 11.679688 6.226562 11.359375 5.90625 C 11.035156 5.582031 10.875 5.203125 10.875 4.765625 C 10.875 4.316406 11.03125 3.925781 11.34375 3.59375 C 11.664062 3.269531 12.054688 3.101562 12.515625 3.09375 C 12.960938 3.09375 13.347656 3.253906 13.671875 3.578125 C 14.003906 3.910156 14.171875 4.300781 14.171875 4.75 C 14.171875 5.1875 14.007812 5.566406 13.6875 5.890625 C 13.363281 6.210938 12.976562 6.375 12.53125 6.375 Z M 12.53125 6.375 "/></g></g></g><g fill="#000000" fill-opacity="1"><g transform="translate(139.704959, 323.768158)"><g/></g></g><g fill="#000000" fill-opacity="1"><g transform="translate(123.524874, 325.588845)"><g><path d="M 16.984375 -1.296875 L 7.15625 -3.609375 L 4.171875 0.984375 L 1.0625 0.25 L 14.484375 -20.25 L 17.890625 -19.453125 L 20.734375 4.875 L 17.625 4.140625 Z M 16.71875 -3.890625 L 15.328125 -16.234375 L 8.5625 -5.796875 Z M 16.71875 -3.890625 "/></g></g></g><g fill="#000000" fill-opacity="1"><g transform="translate(146.754374, 332.944889)"><g/></g></g><g fill="#000000" fill-opacity="1"><g transform="translate(165.342796, 335.10468)"><g/></g></g><g fill="#000000" fill-opacity="1"><g transform="translate(184.399428, 335.744016)"><g><path d="M 15.75 -6.546875 L 5.6875 -5.671875 L 4.265625 -0.375 L 1.09375 -0.09375 L 7.453125 -23.765625 L 10.9375 -24.0625 L 21.21875 -1.828125 L 18.046875 -1.5625 Z M 14.671875 -8.90625 L 9.5 -20.203125 L 6.328125 -8.1875 Z M 14.671875 -8.90625 "/></g></g></g><g fill="#000000" fill-opacity="1"><g transform="translate(216.968728, 331.943972)"><g><path d="M 4.34375 -3.78125 L 15.3125 -6.484375 L 15.9375 -3.9375 L 1.484375 -0.359375 L 0.90625 -2.6875 L 7.46875 -23 L -3.3125 -20.328125 L -3.9375 -22.890625 L 10.3125 -26.421875 L 10.875 -24.078125 Z M 4.34375 -3.78125 "/></g></g></g><g fill="#000000" fill-opacity="1"><g transform="translate(244.370869, 324.521858)"><g><path d="M 12.984375 -11.046875 L 3.65625 -7.125 L 3.953125 -1.65625 L 1.015625 -0.421875 L -0.1875 -24.90625 L 3.03125 -26.265625 L 19.625 -8.25 L 16.6875 -7.015625 Z M 11.234375 -12.984375 L 2.84375 -22.140625 L 3.515625 -9.734375 Z M 11.234375 -12.984375 "/></g></g></g><g fill="#000000" fill-opacity="1"><g transform="translate(63.229382, 122.200316)"><g><path d="M -8.625 -19.8125 L -7.03125 -18.859375 L -9.453125 -14.75 L 4.015625 -6.828125 L 2.859375 -4.859375 L -10.609375 -12.78125 L -13.03125 -8.65625 L -14.625 -9.609375 Z M -8.625 -19.8125 "/></g></g></g><g fill="#000000" fill-opacity="1"><g transform="translate(75.698202, 102.568904)"><g><path d="M 7.265625 -8.453125 L -0.875 -9.9375 L -2.671875 -7.859375 L 2.75 -3.203125 L 1.265625 -1.46875 L -11.984375 -12.875 L -8.3125 -17.15625 C -7.445312 -18.15625 -6.546875 -18.847656 -5.609375 -19.234375 C -4.679688 -19.628906 -3.773438 -19.742188 -2.890625 -19.578125 C -2.015625 -19.421875 -1.207031 -19.023438 -0.46875 -18.390625 C 0.445312 -17.597656 1.023438 -16.640625 1.265625 -15.515625 C 1.503906 -14.398438 1.289062 -13.21875 0.625 -11.96875 L 9.046875 -10.515625 Z M -4.0625 -9.0625 L -1.875 -11.609375 C -1.070312 -12.535156 -0.695312 -13.429688 -0.75 -14.296875 C -0.8125 -15.160156 -1.226562 -15.925781 -2 -16.59375 C -2.78125 -17.269531 -3.585938 -17.5625 -4.421875 -17.46875 C -5.253906 -17.382812 -6.078125 -16.867188 -6.890625 -15.921875 L -9.078125 -13.375 Z M -4.0625 -9.0625 "/></g></g></g><g fill="#000000" fill-opacity="1"><g transform="translate(92.538739, 84.269027)"><g><path d="M 7.1875 -10.671875 L 1.21875 -5.9375 L 2.53125 -2.015625 L 0.65625 -0.515625 L -5.203125 -18.046875 L -3.140625 -19.6875 L 12.59375 -10 L 10.703125 -8.5 Z M 5.515625 -11.71875 L -2.4375 -16.671875 L 0.578125 -7.796875 Z M 5.515625 -11.71875 "/></g></g></g><g fill="#000000" fill-opacity="1"><g transform="translate(113.856842, 68.550542)"><g><path d="M 6.5625 -23.03125 L 8.703125 -4.46875 L 6.34375 -3.265625 L -7.515625 -15.796875 L -5.34375 -16.90625 L 6.4375 -6.015625 L 4.421875 -21.9375 Z M 6.5625 -23.03125 "/></g></g></g><g fill="#000000" fill-opacity="1"><g transform="translate(137.984017, 57.341713)"><g><path d="M -0.484375 -16.171875 L 1.203125 -10.578125 L 7.296875 -12.421875 L 7.84375 -10.625 L 1.75 -8.78125 L 3.484375 -3.015625 L 10.296875 -5.078125 L 10.84375 -3.28125 L 1.859375 -0.5625 L -3.203125 -17.3125 L 5.78125 -20.03125 L 6.328125 -18.234375 Z M -0.484375 -16.171875 "/></g></g></g><g fill="#000000" fill-opacity="1"><g transform="translate(159.897911, 51.627602)"><g><path d="M 3.9375 -2.40625 L 9.984375 -3.21875 L 10.234375 -1.375 L 1.921875 -0.25 L -0.40625 -17.578125 L 1.859375 -17.890625 Z M 3.9375 -2.40625 "/></g></g></g><g fill="#000000" fill-opacity="1"><g transform="translate(180.547845, 49.691884)"><g/></g></g><g fill="#000000" fill-opacity="1"><g transform="translate(197.04978, 50.146449)"><g><path d="M 12.734375 -1.84375 L 5.21875 -3.078125 L 3.1875 0.53125 L 0.8125 0.140625 L 9.890625 -15.96875 L 12.5 -15.546875 L 15.859375 2.625 L 13.484375 2.234375 Z M 12.390625 -3.765625 L 10.734375 -12.984375 L 6.15625 -4.8125 Z M 12.390625 -3.765625 "/></g></g></g><g fill="#000000" fill-opacity="1"><g transform="translate(223.139049, 55.676683)"><g/></g></g><g fill="#000000" fill-opacity="1"><g transform="translate(223.317958, 46.737236)"><g><path d="M 7.84375 11.265625 C 6.695312 11.078125 5.59375 10.765625 4.53125 10.328125 C 3.46875 9.890625 2.550781 9.320312 1.78125 8.625 C 1.007812 7.925781 0.429688 7.117188 0.046875 6.203125 C -0.328125 5.285156 -0.425781 4.253906 -0.25 3.109375 C 0 1.585938 0.625 0.242188 1.625 -0.921875 C 2.625 -2.097656 3.90625 -3.070312 5.46875 -3.84375 C 7.03125 -4.625 8.785156 -5.171875 10.734375 -5.484375 C 9.960938 -5.878906 9.132812 -6.285156 8.25 -6.703125 C 7.363281 -7.117188 6.21875 -7.441406 4.8125 -7.671875 C 4.320312 -7.753906 3.882812 -7.78125 3.5 -7.75 C 3.113281 -7.726562 2.75 -7.707031 2.40625 -7.6875 L 2.34375 -9.578125 C 2.800781 -9.671875 3.304688 -9.734375 3.859375 -9.765625 C 4.410156 -9.804688 4.960938 -9.78125 5.515625 -9.6875 C 6.378906 -9.550781 7.125 -9.359375 7.75 -9.109375 C 8.382812 -8.859375 8.972656 -8.585938 9.515625 -8.296875 C 10.066406 -8.003906 10.625 -7.707031 11.1875 -7.40625 C 11.75 -7.101562 12.390625 -6.816406 13.109375 -6.546875 C 13.835938 -6.285156 14.707031 -6.070312 15.71875 -5.90625 L 15.9375 -5.875 L 15.65625 -3.828125 C 14.695312 -3.984375 13.640625 -4.019531 12.484375 -3.9375 C 11.328125 -3.863281 10.164062 -3.664062 9 -3.34375 C 7.832031 -3.019531 6.738281 -2.566406 5.71875 -1.984375 C 4.707031 -1.398438 3.851562 -0.679688 3.15625 0.171875 C 2.457031 1.023438 2.015625 2.03125 1.828125 3.1875 C 1.691406 4.039062 1.78125 4.8125 2.09375 5.5 C 2.40625 6.1875 2.875 6.785156 3.5 7.296875 C 4.132812 7.804688 4.878906 8.222656 5.734375 8.546875 C 6.597656 8.867188 7.492188 9.101562 8.421875 9.25 C 10.054688 9.519531 11.769531 9.457031 13.5625 9.0625 L 13.96875 10.859375 C 12.925781 11.171875 11.882812 11.351562 10.84375 11.40625 C 9.800781 11.46875 8.800781 11.421875 7.84375 11.265625 Z M 7.328125 3.28125 C 6.972656 3.21875 6.691406 3.046875 6.484375 2.765625 C 6.285156 2.492188 6.210938 2.191406 6.265625 1.859375 C 6.328125 1.535156 6.492188 1.265625 6.765625 1.046875 C 7.046875 0.835938 7.363281 0.765625 7.71875 0.828125 C 8.039062 0.878906 8.300781 1.046875 8.5 1.328125 C 8.707031 1.617188 8.78125 1.925781 8.71875 2.25 C 8.664062 2.582031 8.5 2.847656 8.21875 3.046875 C 7.945312 3.253906 7.648438 3.332031 7.328125 3.28125 Z M 10.6875 3.8125 C 10.332031 3.757812 10.054688 3.59375 9.859375 3.3125 C 9.660156 3.039062 9.585938 2.738281 9.640625 2.40625 C 9.703125 2.082031 9.867188 1.8125 10.140625 1.59375 C 10.410156 1.382812 10.722656 1.304688 11.078125 1.359375 C 11.410156 1.410156 11.675781 1.582031 11.875 1.875 C 12.082031 2.164062 12.15625 2.472656 12.09375 2.796875 C 12.039062 3.128906 11.875 3.394531 11.59375 3.59375 C 11.320312 3.789062 11.019531 3.863281 10.6875 3.8125 Z M 8.5625 6.28125 C 8.21875 6.226562 7.941406 6.0625 7.734375 5.78125 C 7.523438 5.5 7.445312 5.191406 7.5 4.859375 C 7.550781 4.523438 7.71875 4.253906 8 4.046875 C 8.289062 3.847656 8.609375 3.773438 8.953125 3.828125 C 9.285156 3.878906 9.546875 4.046875 9.734375 4.328125 C 9.929688 4.609375 10.003906 4.914062 9.953125 5.25 C 9.898438 5.582031 9.738281 5.847656 9.46875 6.046875 C 9.195312 6.253906 8.894531 6.332031 8.5625 6.28125 Z M 8.5625 6.28125 "/></g></g></g><g fill="#000000" fill-opacity="1"><g transform="translate(246.970846, 61.753084)"><g><path d="M 11.0625 -11.8125 L 8.3125 -6.65625 L 13.9375 -3.671875 L 13.0625 -2.015625 L 7.4375 -5 L 4.59375 0.328125 L 10.875 3.671875 L 10 5.328125 L 1.703125 0.90625 L 9.921875 -14.546875 L 18.21875 -10.125 L 17.34375 -8.46875 Z M 11.0625 -11.8125 "/></g></g></g><g fill="#000000" fill-opacity="1"><g transform="translate(266.535747, 72.924322)"><g><path d="M 12.25 9.765625 L 10.46875 8.34375 L 11.96875 -8.265625 L 3.296875 2.625 L 1.515625 1.203125 L 12.421875 -12.484375 L 14.203125 -11.0625 L 12.71875 5.515625 L 21.375 -5.34375 L 23.15625 -3.921875 Z M 12.25 9.765625 "/></g></g></g><g fill="#000000" fill-opacity="1"><g transform="translate(287.201928, 90.548075)"><g><path d="M 7.4375 -4.75 C 8.75 -5.832031 10.171875 -6.507812 11.703125 -6.78125 C 13.242188 -7.0625 14.734375 -6.929688 16.171875 -6.390625 C 17.617188 -5.859375 18.859375 -4.96875 19.890625 -3.71875 C 21.109375 -2.25 21.816406 -0.675781 22.015625 1 C 22.210938 2.675781 21.863281 4.304688 20.96875 5.890625 L 19.234375 3.78125 C 19.742188 2.726562 19.925781 1.671875 19.78125 0.609375 C 19.644531 -0.441406 19.171875 -1.457031 18.359375 -2.4375 C 17.578125 -3.382812 16.65625 -4.050781 15.59375 -4.4375 C 14.539062 -4.820312 13.4375 -4.894531 12.28125 -4.65625 C 11.125 -4.414062 10.003906 -3.847656 8.921875 -2.953125 C 7.847656 -2.066406 7.082031 -1.078125 6.625 0.015625 C 6.164062 1.109375 6.023438 2.207031 6.203125 3.3125 C 6.390625 4.414062 6.875 5.441406 7.65625 6.390625 C 8.46875 7.367188 9.378906 8.03125 10.390625 8.375 C 11.398438 8.71875 12.46875 8.738281 13.59375 8.4375 L 15.328125 10.546875 C 13.617188 11.117188 11.960938 11.144531 10.359375 10.625 C 8.753906 10.113281 7.34375 9.125 6.125 7.65625 C 5.09375 6.40625 4.445312 5.023438 4.1875 3.515625 C 3.925781 2.003906 4.070312 0.523438 4.625 -0.921875 C 5.175781 -2.378906 6.113281 -3.65625 7.4375 -4.75 Z M 7.4375 -4.75 "/></g></g></g><g fill="#000000" fill-opacity="1"><g transform="translate(304.712944, 113.569854)"><g><path d="M 22.109375 4.171875 L 9.8125 4.328125 L 4.015625 7.453125 L 2.9375 5.453125 L 8.734375 2.328125 L 15.609375 -7.890625 L 16.828125 -5.640625 L 11.078125 2.359375 L 20.90625 1.953125 Z M 22.109375 4.171875 "/></g></g></g></svg>